<svg width="640" height="640" viewBox="0 0 640 640" fill="none" xmlns="http://www.w3.org/2000/svg">
<rect y="520" width="640" height="120" rx="60" fill="#E83C77"/>
<path d="M50 220C50 186.863 76.8629 160 110 160C143.137 160 170 186.863 170 220L170 420C170 453.137 143.137 480 110 480C76.8629 480 50 453.137 50 420L50 220Z" fill="#E83C77"/>
<path d="M50 60C50 26.8629 76.8629 0 110 0C143.137 0 170 26.8629 170 60C170 93.1371 143.137 120 110 120C76.8629 120 50 93.1371 50 60Z" fill="#E83C77"/>
<path fill-rule="evenodd" clip-rule="evenodd" d="M410 70C310.589 70 230 150.589 230 250V420C230 453.137 256.863 480 290 480C323.137 480 350 453.137 350 420V250C350 216.863 376.863 190 410 190C443.137 190 470 216.863 470 250V420C470 453.137 496.863 480 530 480C563.137 480 590 453.137 590 420V250C590 150.589 509.411 70 410 70Z" fill="#E83C77"/>
</svg>
